<?xml version="1.0" encoding="utf-8"?>
<!-- Generator: Adobe Illustrator 16.0.0, SVG Export Plug-In . SVG Version: 6.00 Build 0)  -->
<!DOCTYPE svg PUBLIC "-//W3C//DTD SVG 1.1//EN" "http://www.w3.org/Graphics/SVG/1.1/DTD/svg11.dtd">
<svg version="1.1" xmlns="http://www.w3.org/2000/svg" xmlns:xlink="http://www.w3.org/1999/xlink" x="0px" y="0px" width="792px"
	 height="612px" viewBox="0 0 792 612" enable-background="new 0 0 792 612" xml:space="preserve">
<g id="Layer_1">
	<path fill-rule="evenodd" clip-rule="evenodd" fill="#FFFFFF" d="M711.967,288.879c-2.783-6.225-10.18-114.798-7.998-118.407
		c2.441,3.094,3.652,6.684,4.689,10.273c2.303,7.965,4.447,15.977,6.516,24.006c0.539,2.086,1.221,2.123,2.879,1.08
		c8.777-5.52,15.908-12.895,23.1-20.216c4.037-4.108,7.887-8.421,12.557-11.859c0.602-0.444,1.186-1.29,2.021-0.849
		c0.814,0.431,0.441,1.447,0.42,2.127c-0.301,8.709-4.523,15.445-11.055,20.783c-6.881,5.625-14.096,10.842-20.963,16.484
		c-9.301,7.64-9.334,13.231-0.02,20.737c8.223,6.629,17.445,11.832,26.363,17.448c7.178,4.52,13.811,9.571,18.561,16.75
		c1.139,1.721,2.014,3.564,2.602,5.538c0.16,0.536,0.436,1.265,0.211,1.64c-0.473,0.795-1.25,0.144-1.842-0.023
		c-5.705-1.612-10.76-4.507-15.58-7.895c-8.475-5.951-16.314-12.76-25.039-18.369c-2.965-1.906-6.098-3.483-9.287-4.971
		c-1.646-0.768-2.531-0.907-2.814,1.418c-0.607,4.988-0.395,9.943-0.068,14.922c0.391,5.935,1.398,11.848,0.35,17.829
		C716.801,281.718,715.533,285.789,711.967,288.879z"/>
	<path fill-rule="evenodd" clip-rule="evenodd" fill="#FFFFFF" d="M417.857,184.706c1.91,10.216,2.006,20.396,2.379,30.542
		c0.469,12.7,0.334,25.427,1.855,38.073c0.301,2.517,0.887,5,1.172,7.518c0.225,1.994,0.973,1.764,2.197,0.8
		c3.107-2.446,5.535-5.496,7.789-8.696c3.543-5.036,6.898-10.213,10.602-15.127c3.314-4.396,7.426-7.738,13.316-8.14
		c5.303-0.362,8.406,2.692,10.664,6.834c3.566,6.537,5.193,13.716,5.791,21.044c0.551,6.717,0.688,13.502-1.029,20.133
		c-0.738,2.854-1.797,5.592-4.031,7.667c-0.621,0.578-1.244,1.569-2.148,1.304c-1.053-0.311-0.633-1.513-0.703-2.314
		c-0.656-7.402-1.193-14.815-1.883-22.215c-0.68-7.308-2.418-14.389-4.59-21.399c-0.879-2.837-2.045-2.597-4.143-1.43
		c-5.02,2.792-8.799,6.811-11.779,11.604c-3.25,5.227-6.287,10.587-9.506,15.834c-3.203,5.221-7.559,9.172-13.268,11.541
		c-1.723,0.715-2.74,0.829-3.428-1.589c-2.729-9.588-3.451-19.412-3.707-29.267c-0.346-13.311,0.203-26.618,0.908-39.912
		c0.238-4.486-1.096-8.689-2.037-12.969C410.98,188.64,411.863,186.993,417.857,184.706z"/>
	<path fill-rule="evenodd" clip-rule="evenodd" fill="#FFFFFF" d="M586.686,262.728c4.51-2.802,7.324-6.665,10.072-10.577
		c3.314-4.719,6.486-9.54,9.895-14.19c2.635-3.598,5.938-6.482,10.354-7.765c5.389-1.565,9.588-0.041,12.662,4.63
		c4.076,6.195,5.705,13.242,6.652,20.431c0.908,6.902,0.848,13.848-0.408,20.733c-1.021,5.599-2.934,8.669-6.924,10.988
		c-0.248-2.408-0.527-4.668-0.709-6.936c-1.027-12.943-1.564-25.957-5.857-38.406c-1.395-4.048-1.328-4.052-5.055-1.918
		c-4.793,2.744-8.361,6.714-11.213,11.347c-3.275,5.321-6.336,10.776-9.662,16.063c-3.199,5.081-7.514,8.964-13.174,11.218
		c-1.676,0.667-2.602,0.62-3.227-1.556c-3.363-11.709-3.779-23.708-3.697-35.739c0.074-10.855,0.34-21.714,0.785-32.561
		c0.209-5.092-1.002-9.861-2.15-14.703c-1-4.212,0.15-6.529,3.51-8.254c2.162-1.112,2.51-0.291,2.775,1.733
		c1.402,10.689,1.51,21.441,1.934,32.188c0.52,13.268,0.146,26.609,2.689,39.744C586.143,260.25,586.381,261.295,586.686,262.728z"
		/>
	<path fill-rule="evenodd" clip-rule="evenodd" fill="#FFFFFF" d="M403.611,272.844c-1.41,4.36-4.043,6.747-7.253,8.559
		c-6.518,3.677-13.68,5.158-21.033,5.605c-7.824,0.476-15.662,0.157-23.307-1.701c-8.732-2.123-13.419-7.385-14.406-16.658
		c-1.632-15.334,2.064-29.211,13.129-40.37c10.566-10.659,23.48-13.838,37.972-10.205c4.677,1.172,8.018,4.316,10.036,8.748
		c1.244,2.732,0.959,3.2-1.943,3.475c-3.994,0.379-7.838-0.581-11.482-1.878c-11.8-4.199-20.934-0.288-28.65,8.729
		c-5.393,6.301-10.041,12.998-11.607,21.337c-2.307,12.275,3.721,19.826,16.277,20.641c11.676,0.757,22.93-1.687,34.16-4.365
		C398.031,274.157,400.564,273.564,403.611,272.844z"/>
	<path fill-rule="evenodd" clip-rule="evenodd" fill="#FFFFFF" d="M562.25,281.512c-1.877-5.525-3.693-10.865-5.689-16.736
		c-3.732,4.393-7.162,8.441-11.033,12.066c-4.146,3.883-8.398,7.63-13.592,10.098c-7.473,3.55-12.977,1.799-16.971-5.445
		c-3.605-6.538-4.994-13.742-5.891-21.023c-1.473-11.971-1.805-23.99-0.617-36.011c0.344-3.478,1.027-6.923,1.676-11.175
		c2.438,3.26,3.029,6.369,3.656,9.408c2.006,9.71,2.098,19.617,2.881,29.452c0.436,5.455,0.475,10.983,2.008,16.274
		c2.74,9.456,7.213,12.882,18.492,8.074c4.484-1.911,7.492-5.561,9.637-9.875c3.018-6.069,4.697-12.625,6.756-19.037
		c1.643-5.114,3.154-10.274,5.693-15.034c0.914-1.712,2.07-3.31,3.242-4.864c0.871-1.155,1.918-2.589,3.576-1.915
		c1.363,0.554,1.014,2.186,1.016,3.38c0.016,8.327-1.105,16.579-1.779,24.859c-0.674,8.276-1.561,16.535-2.375,24.8
		C562.852,279.659,563.039,280.587,562.25,281.512z"/>
	<path fill-rule="evenodd" clip-rule="evenodd" fill="#FFFFFF" d="M643.17,213.365c2.572,3.611,3.199,7.157,3.84,10.658
		c2.012,11,2.033,22.186,3.006,33.284c0.357,4.09,0.697,8.181,1.936,12.131c2.68,8.54,7.441,10.984,15.924,8.053
		c6.797-2.348,10.699-7.501,13.299-13.917c3.342-8.251,5.332-16.95,8.459-25.271c1.418-3.774,3.137-7.396,5.721-10.52
		c0.893-1.079,1.822-2.609,3.557-2.046c1.766,0.574,1.016,2.325,1.033,3.505c0.143,9.212-1.178,18.33-1.973,27.481
		c-0.666,7.688-1.438,15.367-2.17,23.05c-0.033,0.343-0.145,0.679-0.742,1.116c-1.799-5.214-3.598-10.428-5.518-15.992
		c-2.572,2.875-4.902,5.574-7.334,8.178c-4.816,5.158-9.967,9.921-16.248,13.298c-8.211,4.414-14.105,2.63-18.434-5.662
		c-3.496-6.7-4.838-14.029-5.633-21.404c-1.355-12.553-1.803-25.15-0.111-37.727C642.119,219.07,642.621,216.581,643.17,213.365z"/>
	<path fill-rule="evenodd" clip-rule="evenodd" fill="#FFFFFF" d="M506.965,348.186c3.961,2.344,7.67,3.323,11.689,2.6
		c2.1-0.377,3.965-1.182,4.477-3.586c0.521-2.469-0.232-4.512-2.371-5.826c-2.492-1.529-5.109-2.855-7.656-4.297
		c-5.092-2.879-6.844-6.084-5.834-10.613c0.797-3.578,5.084-6.545,9.959-6.809c1.559-0.084,3.137-0.086,4.691,0.051
		c4.346,0.385,4.463,0.578,3.934,5.225c-2.717-1.234-5.516-2.063-8.49-1.715c-2.596,0.303-5.186,0.936-5.957,3.875
		c-0.803,3.059,0.955,4.961,3.465,6.373c3.225,1.814,6.754,3.117,9.572,5.621c4.043,3.596,4.143,9.537,0.223,12.872
		c-3.436,2.924-13.039,3.635-16.793,1.182C506.055,351.948,507.174,350.195,506.965,348.186z"/>
	<path fill-rule="evenodd" clip-rule="evenodd" fill="#FFFFFF" d="M479.885,190.338c3.184-8.183,7.002-15.719,12.254-22.443
		c2.689-3.442,5.91-6.199,10.627-6.452C501.998,172.226,488.896,188.97,479.885,190.338z"/>
	<path fill-rule="evenodd" clip-rule="evenodd" fill="#FFFFFF" d="M694.879,350.83c-2.521,3.169-5.607,4.169-9.229,3.604
		c-3.484-0.543-5.701-2.508-6.354-5.946c-1.086-5.713-0.283-11.502-0.523-17.252c-0.063-1.512,0.949-1.418,1.951-1.461
		c1.275-0.055,2.01,0.303,1.975,1.801c-0.076,3.322-0.037,6.648-0.016,9.971c0.01,1.367,0.023,2.74,0.164,4.098
		c0.371,3.535,2.201,5.518,5.139,5.678c3.264,0.179,5.871-1.709,6.641-4.949c0.291-1.223,0.412-2.508,0.434-3.768
		c0.059-3.42,0.035-6.842,0.014-10.264c-0.01-1.395-0.23-2.664,1.971-2.607c2.037,0.051,1.844,1.221,1.828,2.518
		c-0.018,1.467-0.004,2.934-0.004,4.398c0,4.889-0.01,9.775,0.006,14.664c0.006,1.483,0.295,2.876-2.094,2.864
		C694.238,354.167,695.42,352.39,694.879,350.83z"/>
	<path fill-rule="evenodd" clip-rule="evenodd" fill="#FFFFFF" d="M716.887,342.582c0.07-9.443,7.02-14.99,15.855-12.92
		c0.852,0.201,2.105,0.162,2.273,1.438c0.111,0.852,0.275,1.957-0.146,2.551c-0.543,0.766-1.35-0.186-2.035-0.426
		c-5.236-1.826-9.912,0.322-11.549,5.309c-1.807,5.502,0.676,11.191,5.408,12.525c2.09,0.591,4.055,0.107,6.043-0.422
		c0.752-0.201,1.672-1.758,2.215-0.125c0.342,1.028,0.377,2.366-1.227,3.155c-5.867,2.885-13.541,0.082-15.984-5.96
		C717.027,345.943,716.785,344.131,716.887,342.582z"/>
	<path fill-rule="evenodd" clip-rule="evenodd" fill="#FFFFFF" d="M619.525,333.715c1.559-2.809,3.609-4.4,6.795-4.234
		c1.932,0.102,1.436,1.393,1.543,2.48c0.131,1.354-0.607,1.26-1.633,1.223c-4.137-0.15-6.359,1.609-6.748,5.893
		c-0.379,4.166-0.281,8.381-0.285,12.575c-0.002,1.574-0.137,2.541-2.156,2.541c-2.119,0.002-1.748-1.285-1.75-2.504
		c-0.006-6.349-0.021-12.696,0.014-19.044c0.008-1.293-0.67-2.941,1.883-2.932c2.559,0.008,1.844,1.609,1.916,2.959
		C619.117,332.926,619.297,333.17,619.525,333.715z"/>
	<path fill-rule="evenodd" clip-rule="evenodd" fill="#FFFFFF" d="M706.768,335.77c0.004-5.172,0.043-10.344-0.021-15.516
		c-0.02-1.471,0.367-2.037,1.955-2.053c1.641-0.018,1.916,0.617,1.908,2.066c-0.047,10.539-0.029,21.078-0.004,31.616
		c0.002,1.281-0.008,2.271-1.771,2.291c-1.746,0.02-2.117-0.742-2.098-2.305C706.805,346.504,706.762,341.135,706.768,335.77z"/>
	<path fill-rule="evenodd" clip-rule="evenodd" fill="#BA3571" d="M334.153,505.903c-0.384-0.283-1.443-0.609-0.708-1.049
		c1.995-1.193,3.602-2.59,4.609-4.736c0.233-0.498,1.196-1.125,1.83-0.035C338.153,502.2,336.36,504.255,334.153,505.903z"/>
	<path fill-rule="evenodd" clip-rule="evenodd" fill="#B82B6F" d="M356.68,338.332c1.439,0.078,2.879,0.156,4.318,0.234
		c-1.787,0.346-3.586,0.947-5.287-0.152C356.035,338.387,356.358,338.359,356.68,338.332z"/>
	<path fill-rule="evenodd" clip-rule="evenodd" fill="#C03473" d="M331.752,508.229c-1.566-0.17-0.799-0.801-0.26-1.363
		c0.613-0.641,1.22-1.143,1.353,0.318C332.481,507.532,332.116,507.882,331.752,508.229z"/>
	<path fill-rule="evenodd" clip-rule="evenodd" fill="#BC3574" d="M305.185,524.646c-0.389-0.002-0.818,0.1-1.155-0.033
		c-0.386-0.152-1.236,0.613-1.159-0.541c0.022-0.342-0.068-0.689-0.107-1.035c0.452,0.063,0.927,0.059,1.352,0.201
		c0.639,0.215,1.734,0.16,1.079,1.4L305.185,524.646z"/>
	<path fill-rule="evenodd" clip-rule="evenodd" fill="#C43C81" d="M381.896,405.782c0.56,1.563-0.653,2.471-0.427,3.66
		C381.046,407.874,381.046,407.874,381.896,405.782z"/>
	<path fill-rule="evenodd" clip-rule="evenodd" fill="#C9357E" d="M386.127,363.847c0,1.105,0,2.211,0,3.316
		C385.506,366.036,385.644,364.892,386.127,363.847z"/>
	<path fill-rule="evenodd" clip-rule="evenodd" fill="#CB367F" d="M307.03,357.646c0.668-0.541,1.404-0.457,2.185-0.264
		C308.571,358.313,307.756,357.466,307.03,357.646z"/>
	<path fill-rule="evenodd" clip-rule="evenodd" fill="#FFFFFF" d="M672.84,332.461c-1.008-6.16-5.092-10.357-11.189-11.674
		c-4.561-0.984-9.168-0.375-13.744-0.627c-1.771-0.098-2.092,0.584-2.064,2.162c0.088,4.893,0.033,9.789,0.031,14.682
		c0,2.645-0.092,5.291,0.025,7.928c0.133,2.982-1.361,6.987,0.635,8.671c2.076,1.748,6.01,0.59,9.111,0.418
		C668.211,353.329,674.873,344.912,672.84,332.461z M668.68,340.256c-0.898,5.697-5.346,9.514-11.334,10.051
		c-7.404,0.664-7.404,0.664-7.404-6.598c0-2.15,0-4.301,0-6.453c-0.006,0-0.012,0-0.02,0c0-3.91,0.014-7.82-0.008-11.73
		c-0.006-0.926-0.098-1.771,1.246-1.771c3.807,0,7.65-0.281,11.26,1.293c2.91,1.268,4.906,3.363,5.83,6.496
		C669.104,334.436,669.135,337.371,668.68,340.256z"/>
	<path fill-rule="evenodd" clip-rule="evenodd" fill="#FFFFFF" d="M580.186,337.184c-1.389-5.957-5.814-8.814-11.791-7.65
		c-2.383,0.463-4.1,1.973-6.07,4.172c0-4.846-0.068-9.102,0.035-13.354c0.043-1.746-0.678-2.119-2.25-2.145
		c-1.5-0.025-1.773,0.578-1.77,1.902c0.039,10.754,0.045,21.508-0.008,32.261c-0.008,1.469,0.564,1.695,1.877,1.816
		c2.164,0.201,2.199-1.24,2.279-2.8c7.012,6.616,16.566,2.163,17.811-6.094C580.713,342.543,580.814,339.877,580.186,337.184z
		 M576.021,345.982c-1.297,3.869-4.295,5.851-7.996,5.281c-3.324-0.512-5.484-3.232-5.656-7.139
		c-0.027-0.586-0.004-1.174-0.004-1.76c0.008-1.754-0.104-3.508,0.623-5.197c1.305-3.035,3.965-4.791,7.131-4.59
		c3.262,0.205,5.633,2.152,6.258,5.564C576.854,340.738,576.887,343.402,576.021,345.982z"/>
	<path fill-rule="evenodd" clip-rule="evenodd" fill="#FFFFFF" d="M755.373,330.416c-3.666-1.998-9.109-1.252-12.254,1.682
		c-4.266,3.977-5.289,12.305-2.17,17.629c2.645,4.513,8.693,6.097,14.838,4.067c2.455-0.811,3.5-2.115,2.58-4.853
		c-0.813,0.473-1.521,0.953-2.285,1.318c-5.816,2.78-11.813,0.266-12.67-5.248c-0.23-1.48,0.047-2.098,1.732-2.057
		c4.391,0.102,8.785,0.018,13.18,0.016c0.979-0.002,1.846,0.15,2.047-1.35C760.926,337.484,758.67,332.213,755.373,330.416z
		 M754.975,339.619c-3.807-0.035-7.613-0.014-11.438-0.014c0.502-4.311,2.695-6.711,6.268-7.016c3.508-0.299,6.311,2.229,6.488,5.73
		C756.35,339.416,755.932,339.627,754.975,339.619z"/>
	<path fill-rule="evenodd" clip-rule="evenodd" fill="#FFFFFF" d="M550.816,335.58c-0.389-3.473-2.65-5.635-6.119-6.08
		c-2.533-0.324-5.039-0.141-7.518,0.645c-2.535,0.803-3.623,2.184-2.463,5.049c2.373-1.691,4.844-2.674,7.684-2.639
		c2.74,0.035,4.031,1.582,4.631,4.006c0.367,1.484,0.113,2.283-1.734,2.467c-2.988,0.299-6.037,0.455-8.869,1.664
		c-3.266,1.393-4.975,4.475-4.457,8.061c0.471,3.247,2.885,5.335,6.428,5.745c3.477,0.402,6.275-0.76,8.689-3.933
		c0.059,1.118,0.127,1.663,0.105,2.204c-0.063,1.572,1.07,1.32,2.018,1.359c1.09,0.043,1.928-0.143,1.893-1.555
		C550.959,346.908,551.449,341.227,550.816,335.58z M547.207,343.949c-0.092,4.807-3.369,7.962-7.434,7.324
		c-1.953-0.307-3.518-1.182-3.736-3.451c-0.211-2.199,0.439-3.932,2.738-4.523c1.975-0.508,4.014-0.76,6.004-1.207
		C546.631,341.674,547.645,342.08,547.207,343.949z"/>
	<path fill-rule="evenodd" clip-rule="evenodd" fill="#FFFFFF" d="M597.152,329.26c-7.414,0.113-11.848,4.986-11.84,13.01
		c0.008,7.633,4.514,12.372,11.736,12.345c7.426-0.029,11.91-4.874,11.91-12.87C608.961,333.707,604.646,329.145,597.152,329.26z
		 M598.947,351.203c-4.082,0.835-7.613-1.086-9.031-5.047c-1.016-2.836-0.986-5.744,0.076-8.568c1.33-3.539,4.232-5.311,7.986-5.002
		c3.734,0.307,6.092,2.508,6.789,6.414c0.188,1.049,0.217,2.125,0.244,2.4C604.967,347.428,602.982,350.379,598.947,351.203z"/>
	<g>
		<path fill-rule="evenodd" clip-rule="evenodd" fill="#BA286F" d="M70.619,187.467c-0.004-0.006-0.009-0.014-0.013-0.02
			c-0.054,0.003-0.099,0.016-0.15,0.02C70.51,187.467,70.564,187.467,70.619,187.467z"/>
		<rect x="158.344" y="247.972" fill-rule="evenodd" clip-rule="evenodd" fill="#BA286F" width="0.002" height="0.004"/>
		<path fill-rule="evenodd" clip-rule="evenodd" fill="#BA286F" d="M385.116,354.413c-4.638-12.351-17.424-17.819-28.436-16.081
			c0.466,0.293,0.951,0.391,1.442,0.416c0.751-0.045,1.503-0.133,2.243-0.002c-0.739-0.09-1.5,0.041-2.243,0.002
			c-0.813,0.051-1.623,0.05-2.41-0.336c-5.687,0.387-10.434,3.414-15.603,5.311c-11.33,4.158-22.652,8.495-34.613,10.698
			c-7.574,1.395-11.908-1.756-12.652-9.372c-0.236-2.426-0.355-4.877-1.238-7.195c-1.029,0.082-1.866-0.279-2.447-1.135
			c-0.908-1.34-0.979-2.479,0.83-3.104c-0.399-1.438-0.968-2.799-1.826-4.027c-0.023,0.373-0.047,0.746-0.074,1.168
			c-1.395-1.639-1.425-1.748-0.979-3.529c-0.127-1.131-0.564-2.135-1.25-3.035c-0.14,0.381-0.223,1.299-0.719,0.736
			c-0.838-0.949-1.837-2.158-0.475-3.525c-1.204-4.021-3.129-7.75-4.835-11.559c-0.724-1.613-0.503-2.43,1.154-3.113
			c1.977-0.813,3.843-1.89,5.774-2.815c0.832-0.397,1.682-0.738,1.178-1.91c-0.947-2.206-1.5-4.688-3.982-5.853
			c-1.318,0.537-2.523,1.872-4.342,0.471c0.702-0.766,3.088-0.123,2.065-2.184l-0.065-0.043c-1.031,0.001-1.972-0.141-2.207-1.396
			c0,0,0,0,0.001,0c-0.001,0-0.001-0.001-0.001-0.001c-2.246-1.666-4.56-3.251-6.717-5.025c-1.657-1.363-2.601-3.122-1.65-5.372
			c-0.291-0.236-0.786-0.719-0.842-0.673c-1.326,1.107-2.154,0.178-2.197-0.882c-0.039-0.924-0.015-2.493,1.836-2.33
			c1.212,0.106,2.579-0.111,2.555-1.621c-0.049-3.203,1.958-1.991,3.565-2.022c-0.155,1.242-0.896,0.55-1.345,0.663
			c-0.777,0.194-1.281,0.746-0.997,1.473c0.454,1.162,1.03,0.166,1.565-0.056c0.762-0.316,1.486-0.904,2.393-0.415
			c3.133-1.792,6.159-3.745,9.021-5.946c5.22-4.017,8.372-9.271,9.312-15.802c0.702-4.87-0.365-9.522-1.943-14.081
			c-3.197-9.238-6.385-18.439-6.57-28.416c-0.08-4.272-2.085-7.855-5.99-10.156c-4.737-2.791-6.162-9.322-3.131-13.97
			c1.498-2.297,2.931-4.62,3.66-7.3c0.98-3.604-0.24-5.854-3.818-6.979c-2.464-0.773-5.019-0.871-7.557-0.696
			c-1.712,0.118-2.036-0.488-1.633-2.004c0.6-2.253,1.459-4.453,1.547-6.823c-0.045,0.021-0.071,0.026-0.111,0.043
			c-0.38,0.234-0.938,1.341-0.928-0.155c0.008-1.292,0.47-2.58,0.889-4.659c0.148,1.774,0.234,2.796,0.32,3.818v0l0,0
			c1.066-2.233,1.16-4.689,1.4-7.063c0.744-7.326,0.541-14.537-3.748-20.987l0,0v0c-0.318,0.475-0.531,1.149-1.043,0.056
			c-0.394-0.841-1.041-1.681-2.005-0.433c0.147,0.544,1.091,0.596,0.86,1.381c-2.307-0.971-2.479-1.483-1.445-4.32
			c-0.484-0.899-1.412-1.616-1.168-2.817c-1.32-0.514-2.469,0.083-3.635,0.563c-5.613,2.31-10.68,5.593-15.861,8.702
			c-5.867,3.518-10.916,8.194-16.875,11.554c-3.242,1.828-6.408,2.23-9.451-0.409c-0.09,0.46-0.232,1.219-0.76,0.872
			c-0.623-0.412-1.471-1.187-0.307-2.049c0,0,0.001,0,0.001,0.001c0,0,0,0,0-0.001c-1.366-2.234-2.82-4.421-4.079-6.715
			c-1.871-3.412-3.652-6.879-6.095-9.928c-3.993-4.983-8.154-5.096-11.998-0.167c-2.862,3.669-5.457,7.549-7.778,11.596
			c0.51,1.805,0.223,2.248-1.379,2.128c0,0,0,0,0,0l0,0c-0.535,0.691-1.146,1.336-1.594,2.079
			c-7.805,12.961-17.201,25.026-22.379,39.465c-0.709,1.979-2.354,1.393-3.629,1.786c-1.32,0.407-1.561-0.864-2.038-1.654
			c-1.212-2.009-2.349-4.065-3.595-6.052c-2.717-4.327-4.132-8.997-4.258-14.13c-0.128-5.277-0.566-10.545-0.76-15.822
			c-0.565-15.535-1.076-31.072-1.609-46.608c-2.741,0-5.482,0-8.224,0c-0.453,0.527-0.73,1.134-0.796,1.826
			c-0.514,5.469-1.08,10.937-0.479,16.44c0.512,1.751,0.697,3.506,0.12,5.279c-0.481,4.494-0.032,8.95,0.259,13.438
			c1.254,19.315,5.993,37.744,13.589,55.492c0.431,1.006,1.181,1.984,0.841,3.226c-1.352,0.139-2.424-0.431-3.561-0.644
			c-3.176-0.595-5.989-2.422-9.259-2.71c-0.438,0.007-0.867,0.066-1.29,0.15c0.192,0.094,0.382,0.199,0.566,0.317
			c-0.6,0.879-1.575,0.416-2.35,0.665c-0.634,0.204-1.238,0.157-1.288-0.57c-0.07-1.026,0.762-0.608,1.286-0.704
			c0.093-0.273,0.193-0.549-0.001-0.634c-0.841-0.91-2.034-1.109-3.121-1.527c-4.569-1.76-9.272-3.127-13.956-4.518
			c-6.366-1.891-12.765-3.753-19.43-4.35c-0.95,0.354-1.997,0.228-3.02,0.231c0.134,0.055,0.269,0.11,0.4,0.18
			c0.889,0.083,1.777,0.167,2.666,0.25c-1.805,1.137-4.067-0.444-5.822,0.984c0.096,0.016,0.223,0,0.282,0.055
			c0.11,0.101,0.183,0.245,0.271,0.37c-1.521,0.136-3.063,0.508-4.557,0.366c-6.107-0.58-12.219,0.228-18.318-0.198
			c-1.203,0.663-2.783,1.009-2.48,2.945c0.004,0.024-0.146,0.105-0.221,0.1c-0.086-0.005-0.166-0.077-0.248-0.12
			c-0.227,0.012-0.454,0.024-0.681,0.036c-0.167,0.144-0.308,0.311-0.392,0.524c-0.217,4.943,1.199,9.679,1.971,14.483
			c1.101,6.855,2.259,13.708,3.597,20.523c0.388,1.978-0.177,2.995-2.214,3.178c-0.775,0.07-1.543,0.259-2.314,0.396
			c-9.842,1.748-19.654,3.66-28.902,7.605c-3.482,1.486-7.335,2.209-10.346,4.745c-0.227,0.176-0.088,0.496-0.071,0.783
			c0.211,0.078,0.422,0.155,0.632,0.232c-1.04,0.842-1.953,2.163-3.543,0.945c0.155-0.14,0.316-0.266,0.479-0.391
			c-0.292,0.001-0.585-0.018-0.883-0.095c-3.76,0.537-5.019,1.338-4.383,3.315c1.685,5.23,4.108,10.098,8.373,13.805
			c0.198-0.018,0.399-0.039,0.597-0.055c-0.029-0.034-0.058-0.067-0.087-0.101c0.359-2.239,1.625,0.323,2.265-0.428
			c0.43,1.104-0.514,1.181-1.079,1.539c-0.049,0.156-0.109,0.324-0.207,0.528c0.484,1.47,1.646,2.435,2.754,3.355
			c6.576,5.463,14.051,9.129,22.414,10.958c1.098,0.008,2.089,0.291,2.881,1.093c0.367,0.319,0.779,0.577,1.174,0.859
			c3.219,2.296,3.666,4.251,1.797,7.696c-1.072,1.978-2.547,3.664-3.844,5.481c-2.744,3.847-5.986,7.398-7.427,12.052
			c0.054,0.221,0.08,0.427,0.093,0.625c0.094-0.103,0.189-0.204,0.284-0.306c0.777,1.691,0.54,2.14-1.183,2.231
			c-0.003-0.061,0.005-0.116,0.007-0.174c-0.193,0.111-0.409,0.209-0.671,0.282c-2.264,3.53-4.338,7.131-4.309,11.528
			c0.073,0.043,0.13,0.086,0.188,0.129c0.37-0.194,0.753-0.395,1.267-0.664c-0.178,1.643-0.741,3-1.575,4.648
			c-0.099-0.682-0.163-1.122-0.221-1.523c-0.19-0.133-0.407-0.165-0.708,0.104c-2.23,5.035-2.999,10.33-2.736,15.801
			c0.212,1.246,0.337,2.494,0.391,3.742c0.034-1.258,0.102-2.517,0.244-3.775c0.875,3.506,0.833,7.014,0.027,10.525
			c-0.146-1.338-0.225-2.676-0.266-4.014c-0.049,1.262-0.163,2.523-0.334,3.787c-0.621,4.061,0.469,7.978,1.202,11.878
			c2.556,13.572,8.101,26.037,14.592,38.121c0.458,0.854,0.984,1.701,1.979,2.076c0.155,0.068,0.256,0.038,0.328-0.035
			c0.33-0.291-0.344-1.769,0.662-0.973c1.758,1.389,0.797-0.971,1.686-0.84c-0.436,2.123-0.314,3.496,2.639,3.871
			c2.282,0.289,1.434,3.082,1.508,4.898c0.002,0.582,0.004,1.164,0.006,1.748c-0.02,0.559-0.185,1.031-0.76,1.254
			c-0.058-0.077-0.107-0.159-0.164-0.236c-0.027,0.161-0.059,0.321-0.074,0.484c-0.029,1.246,0.583,2.266,1.223,3.246
			c3.207,4.914,6.366,9.865,9.775,14.639c15.516,21.729,33.879,40.736,55.212,56.781c14.028,10.551,29.053,19.557,44.993,26.939
			c3.779,1.75,7.369,4.088,11.623,4.725c0.226,0.016,0.328-0.154,0.413-0.334l-0.058-0.043c-0.035-0.326-0.545-0.799,0.021-0.922
			c0.348-0.078,1.055,0.279,1.162,0.592c0.15,0.441-0.316,0.357-0.632,0.416c-0.108,0.19-0.229,0.407-0.018,0.598
			c3.531,2.379,7.521,3.662,11.577,4.777c1.162-0.027,2.223,0.229,3.078,1.072c5.799,2.885,12.078,4.271,18.295,5.854
			c26.629,0,53.258,0,79.887,0c0.785-2.22,3.579-1.226,4.688-2.924c-0.111-0.134-0.226-0.263-0.354-0.373
			c-0.571-0.19-1.489,0.14-1.53-0.887c0.56,0.241,1.088,0.505,1.53,0.887c0.165,0.055,0.29,0.17,0.367,0.357l0.003-0.002
			c1.209,0.006,2.107-2.357,3.563-0.467c8.738-3.764,16-9.66,22.995-15.941c0.224-0.33-1.296-0.195-0.208-0.637
			c0.385-0.156,0.474-1.732,1.301-0.408c0.437-0.428,0.872-0.855,1.308-1.281c1.508-2.336,3.329-4.365,5.731-5.82
			c0.946-0.979,1.952-1.906,2.831-2.941c18.759-22.1,30.818-47.543,37.658-75.58c4.392-18.004,6.266-36.332,6.859-54.811
			C387.369,362.521,386.615,358.405,385.116,354.413z M273.627,189.294c0.554,1.265,0.465,2.003,0.254,2.874
			C273.141,191.412,273.56,190.648,273.627,189.294z M269.356,142.824L269.356,142.824
			C269.357,142.823,269.357,142.824,269.356,142.824c0.674,0.463,0.912,1.11,1.032,2.008
			C269.144,144.408,269.444,143.535,269.356,142.824C269.357,142.824,269.356,142.824,269.356,142.824
			c-1.239,1.002-0.045,2.626-1.072,3.927c-0.587-2.436,0.693-4.672-0.174-7.241C269.372,140.616,270.289,141.41,269.356,142.824z
			 M136.647,128.111c0-1.549,0-3.097,0-4.646C137.501,125.014,137.501,126.563,136.647,128.111z M144.471,172.253
			c-1.033-1.679,0.111-3.061-0.742-4.216C145.807,169.053,145.146,170.38,144.471,172.253z M31.335,244.455
			c-0.81-0.098-1.255-0.066-1.075-0.415c0.146-0.285,0.613-0.428,0.965-0.57c0.094-0.039,0.419,0.201,0.406,0.238
			C31.511,244.081,31.342,244.438,31.335,244.455z M55.338,276.25c1.247-0.145,2.377,0.006,3.076,1.231
			C57.279,277.348,56.285,276.861,55.338,276.25z M73.46,213.44c0.011,2.139,0.744,4.199,0.942,6.917
			C72.673,217.808,73.333,215.595,73.46,213.44z M181.555,259.192c-0.793-0.988-1.518-2.048-2.775-2.581
			C180.742,256.273,181.44,257.411,181.555,259.192z M177.424,255.603c-0.367-1.814-0.74-3.058-2.178-3.453
			c-1.156-0.317-2.549,0.443-3.816-1.046C178.018,251.964,178.018,251.964,177.424,255.603z M171.175,170.332
			c0.21,1.469-0.351,2.384-2.204,2.672C169.733,171.901,170.88,171.409,171.175,170.332z M151.267,185.145
			c0.7,0.991,1.401,1.982,2.103,2.974c-0.299,0.172-0.598,0.345-0.896,0.517C150.446,187.87,150.362,187.628,151.267,185.145z
			 M144.803,201.223c-0.959,0.38-1.873,0.538-2.596-0.426C143.312,199.989,143.954,201.214,144.803,201.223z M130.417,410.188
			c0.23,0.027,0.537,0.176,0.637,0.363c0.16,0.305-0.086,0.482-0.48,0.545c-0.154-0.117-0.432-0.229-0.545-0.434
			C129.823,410.298,130.153,410.159,130.417,410.188z M109.286,308.615c-0.806,0.555-1.404,0.504-2.717,0
			C107.869,308.615,108.462,308.615,109.286,308.615z M97.301,328.418c-0.75-3.521-0.479-7.016,0.122-10.465
			c0.227-1.303,1.339-2.449,2.048-3.666c-0.766-0.789-0.066-1.383,0.361-1.881c0.438-0.508,0.777-0.035,1.021,0.375
			c7.318-4.752,11.787-4.629,19.025,0.605c2.135,1.545,4.188,3.203,6.266,4.822c4.492,3.5,4.686,7.113,0.561,10.93
			c-2.652,2.455-5.195,5.059-8.042,7.268C110.133,343.021,99.545,338.979,97.301,328.418z M137.286,423.116
			c-3.037,2.236-5.953,4.643-9.043,6.801c-3.049,2.129-5.184,2.041-7.941-0.375c-2.123-1.861-3.97-4.035-5.986-6.023
			c-0.779-0.768-0.867-1.422-0.124-2.248c1.956-2.18,3.768-4.502,5.846-6.557c3.241-3.207,5.318-3.238,9.004-0.516
			c0.544,0.4,1.121,0.758,1.683,1.137c-0.134-4.336-4.261-3.354-6.764-4.896c6.022,0.244,7.773,1.557,6.818,4.928
			c1.884,2.133,4.192,3.783,6.398,5.543C138.129,421.671,138.484,422.233,137.286,423.116z M138.694,486.179
			c0.879-0.199,1.412,0.176,2.088,1.164C139.68,487.144,139.043,486.995,138.694,486.179z M171.436,289.51
			c-4.945,2.775-10.088,3.109-15.475,2.009c-1.58,1.141-3.119,0.061-4.676-0.083c-0.791,0.006-1.582,0.011-2.372,0.017
			c-2.991,1.323-3.007,1.319-2.913-0.612c0.402-0.575-1.012-2.369,1.174-1.749c0-0.196,0.001-0.393,0.002-0.589
			c0.195-0.39,0.391-0.78,0.586-1.171l-0.174-0.098l-0.197,0.025c-1.17-0.314-1.885-1.021-1.959-2.278
			c-2.811-3.672-5.131-7.574-5.328-12.352c-0.414-10.013,6.773-19.526,16.758-22.276c0.553-0.152,1.086-0.365,1.629-0.55
			c-0.98-0.068-1.848-0.758-1.856-1.495c-0.009-0.66,1.108-0.194,1.708-0.336c0.001,0,0.001,0,0.002,0.001
			c2.658-1.237,5.424-0.265,8.254-0.379c-1.492,0.067-2.211,0.842-2.414,2.161c1.193,0.348,2.384,0.694,3.576,1.041
			c0.598-1.982-1.408-0.52-1.726-1.368c1.327-0.62,2.485-0.373,3.331,0.822c0.549,0.775-0.345,0.568-0.651,0.75
			c3.558,2.225,7.053,4.506,9.585,7.98C186.02,269.573,182.95,283.047,171.436,289.51z M199.297,520.003
			c1.187-0.064,2.443-0.324,3.083,1.119C201.353,520.749,200.325,520.376,199.297,520.003z"/>
		<path fill-rule="evenodd" clip-rule="evenodd" fill="#BA286F" d="M158.338,247.976c0.007,0.003,0.014,0.005,0.021,0.008
			c-0.005-0.003-0.009-0.005-0.013-0.008C158.344,247.976,158.341,247.976,158.338,247.976z"/>
		<path fill-rule="evenodd" clip-rule="evenodd" fill="#BA286F" d="M305.191,524.64l-0.006,0.006
			c-0.002,0.004-0.005,0.006-0.008,0.01c0.018,0.021,0.038,0.036,0.055,0.058C305.223,524.682,305.203,524.668,305.191,524.64z"/>
		<path fill-rule="evenodd" clip-rule="evenodd" fill="#BA286F" d="M305.338,524.835c-0.032-0.046-0.072-0.079-0.106-0.122
			c0.001,0.004,0.003,0.007,0.004,0.011c-0.917,2.059-3.414,1.488-4.747,2.855c0.588,0,1.176,0,1.763,0
			c1.888-1.674,4.688-1.604,6.506-3.408C307.459,523.579,306.607,525.286,305.338,524.835z"/>
		<path fill-rule="evenodd" clip-rule="evenodd" fill="#BA286F" d="M273.401,277.812c-0.732-0.936-0.128-1.751,0.572-2.355
			c-0.846,0.043-0.881,0.902-0.971,1.523c-0.194,1.358-0.943,2.047-2.217,2.352c-0.729,0.174-1.703,0.226-1.732,1.237
			c-0.026,0.981,1.079,0.558,1.545,0.98c0.313,0.283,0.297,0.702,0.441,1.054c1.729-2.454,4.379-3.882,6.533-5.863
			c-0.668,0.156-1.284,0.433-1.883,0.765C274.963,277.909,274.164,278.787,273.401,277.812z"/>
		<path fill-rule="evenodd" clip-rule="evenodd" fill="#BA286F" d="M264.794,134.169c0.021,0.278,0.1,0.545,0.272,0.793
			c0.01-0.034,0.021-0.063,0.038-0.077c1.659-2.491,2.05,0.79,3.187,0.68c-1.117-2.422-2.622-4.541-4.801-6.132
			c0.513,0.909,1.279,1.685,1.465,2.768C264.885,132.854,264.831,133.511,264.794,134.169z"/>
		<path fill-rule="evenodd" clip-rule="evenodd" fill="#BA286F" d="M291.606,337.854c-0.338-1.49-0.656-2.986-1.617-4.238
			C288.57,335.775,290.352,336.715,291.606,337.854z"/>
		<path fill-rule="evenodd" clip-rule="evenodd" fill="#BA286F" d="M283.141,296.065c0.256-0.101,0.55-0.013,0.814,0.088
			c-0.419-1.022-1.338-1.381-2.276-1.713c0.245,0.284,0.653,0.7,0.556,0.928C281.538,296.98,282.427,296.345,283.141,296.065z"/>
		<path fill-rule="evenodd" clip-rule="evenodd" fill="#BA286F" d="M285.219,324.186c0.115,0.828,0.42,0.07,0.641,0.006
			c0.186-1.18-1.139-1.713-1.193-2.789C283.759,322.539,285.089,323.244,285.219,324.186z"/>
		<path fill-rule="evenodd" clip-rule="evenodd" fill="#BA286F" d="M270.254,161.262c-0.057,0.855,0.008,1.755-0.282,2.63
			c-0.091,0.274-0.672,1.168,0.386,0.718c0.039-0.024,0.077-0.042,0.111-0.043c0.057-0.317,0.113-0.634,0.17-0.952
			C269.868,162.918,270.411,162.022,270.254,161.262z"/>
		<path fill-rule="evenodd" clip-rule="evenodd" fill="#BA286F" d="M287.723,329.785c0.004,0.02,0.178,0.025,0.251-0.008
			c0.075-0.035,0.127-0.125,0.188-0.189c-0.106-0.896-0.464-1.682-1.053-2.361C286.92,328.172,287.516,328.932,287.723,329.785z"/>
		<path fill-rule="evenodd" clip-rule="evenodd" fill="#BA286F" d="M186.653,143.45c-0.617,0.607-1.153,1.267-1.379,2.127
			C186.254,145.206,186.706,144.491,186.653,143.45z"/>
		<path fill-rule="evenodd" clip-rule="evenodd" fill="#BA286F" d="M217.668,149.841c-0.355-0.392-0.71-0.785-1.065-1.177
			C216.594,149.386,216.811,149.904,217.668,149.841z"/>
		<path fill-rule="evenodd" clip-rule="evenodd" fill="#BA286F" d="M281.614,294.397c-0.578-0.713-1.381-1.073-2.206-1.395
			C279.841,293.943,280.905,293.889,281.614,294.397z"/>
		<path fill-rule="evenodd" clip-rule="evenodd" fill="#BA286F" d="M73.352,186.292c1.492,0.021,2.983,0.005,4.469,0.179
			c-2.377,0.958-4.97-0.289-7.301,0.845c0.021,0.039,0.06,0.09,0.086,0.132c0.007,0,0.013-0.002,0.02-0.002
			c6.416,0.034,12.842-0.548,19.254,0.019c0.878,0,1.756,0,2.634,0c0.003-0.144-0.018-0.314-0.048-0.44
			c0.318-0.318,0.657-0.535,1.01-0.681c-0.741,0.025-1.466-0.081-2.127-0.674c-6.04-1.351-12.138-0.375-18.209-0.45
			C72.947,185.629,71.682,186.268,73.352,186.292z"/>
		<path fill-rule="evenodd" clip-rule="evenodd" fill="#BA286F" d="M64.265,407.008c-0.892-1.386-0.76-3.454-2.599-4.231
			c-0.078-0.033-0.051-0.564,0.074-0.775c0.246-0.408,0.543-0.221,0.938-0.055c1.225,0.515,1.425,1.576,1.683,2.603
			c-0.116-1.846-0.753-3.318-3.415-3.399c-0.465-0.014-0.85-0.424-0.952-0.967c-0.149-0.795,0.735-1.344,0.503-2.156
			c-0.125,1.352-0.637,1.098-1.451,0.439c-0.438-0.353-0.383,0.335-0.611,0.566c-0.001,0.001-0.001,0.003-0.002,0.004
			c1.556,3.414,3.357,6.688,5.578,9.719c0.063-0.381,0.14-0.76,0.188-1.143C64.221,407.411,64.243,407.21,64.265,407.008z"/>
		<path fill-rule="evenodd" clip-rule="evenodd" fill="#BA286F" d="M158.491,249.804c1.898-0.016,3.796-0.032,5.693-0.049
			C162.277,248.582,160.377,248.525,158.491,249.804z"/>
		<path fill-rule="evenodd" clip-rule="evenodd" fill="#BA286F" d="M70.225,187.498c0.076-0.01,0.15-0.023,0.23-0.03
			c-0.077,0-0.153,0-0.23,0C70.225,187.478,70.225,187.487,70.225,187.498z"/>
		<path fill-rule="evenodd" clip-rule="evenodd" fill="#BA286F" d="M92.392,187.744c0.086,0.012,0.118-0.114,0.122-0.274
			c-0.294,0.077-0.588,0.14-0.882,0.189C91.885,187.69,92.139,187.708,92.392,187.744z"/>
		<path fill-rule="evenodd" clip-rule="evenodd" fill="#BA286F" d="M92.514,187.47c0.01-0.003,0.021-0.004,0.031-0.007
			c-0.011,0-0.021,0-0.032,0C92.513,187.465,92.514,187.468,92.514,187.47z"/>
		<path fill-rule="evenodd" clip-rule="evenodd" fill="#BA286F" d="M70.794,187.738c4.745,0.104,9.497,0.028,14.246-0.007
			c2.194-0.016,4.406,0.297,6.592-0.072c-0.584-0.072-1.169-0.144-1.753-0.195c-6.42,0.001-12.84,0.002-19.261,0.003
			C70.673,187.555,70.715,187.635,70.794,187.738z"/>
		<path fill-rule="evenodd" clip-rule="evenodd" fill="#BA286F" d="M148.832,288.616c0.206,0.158,0.418,0.311,0.63,0.464
			c2.059,1.102,3.93,2.696,6.5,2.439c-2.137-1.008-4.273-2.016-6.41-3.023C149.311,288.502,149.072,288.558,148.832,288.616z"/>
		<path fill-rule="evenodd" clip-rule="evenodd" fill="#BA286F" d="M64.13,405.472c-0.044-0.271-0.093-0.536-0.154-0.795
			C63.991,404.962,64.019,405.242,64.13,405.472z"/>
		<path fill-rule="evenodd" clip-rule="evenodd" fill="#BA286F" d="M64.13,405.472c0.054,0.331,0.113,0.664,0.195,0.988
			c0.017-0.15,0.035-0.301,0.05-0.451c0.002-0.078,0.003-0.155,0.005-0.232C64.27,405.691,64.187,405.59,64.13,405.472z"/>
		<path fill-rule="evenodd" clip-rule="evenodd" fill="#BA286F" d="M63.134,403.179c0.488,0.396,0.706,0.925,0.842,1.498
			C63.941,403.986,63.986,403.268,63.134,403.179z"/>
		<path fill-rule="evenodd" clip-rule="evenodd" fill="#BA286F" d="M64.38,405.776c0.133,0.103,0.307,0.18,0.548,0.213
			c-0.296-0.421-0.438-0.927-0.567-1.44C64.386,404.944,64.388,405.356,64.38,405.776z"/>
		<path fill-rule="evenodd" clip-rule="evenodd" fill="#BA286F" d="M64.265,407.008c0.177,0.274,0.389,0.524,0.669,0.729
			c-0.322-0.379-0.492-0.818-0.608-1.277C64.306,406.643,64.287,406.825,64.265,407.008z"/>
		<path fill-rule="evenodd" clip-rule="evenodd" fill="#BA286F" d="M40.661,340.469c-0.024,0.912-0.022,1.824,0.006,2.736
			C40.701,342.292,40.7,341.381,40.661,340.469z"/>
		<path fill-rule="evenodd" clip-rule="evenodd" fill="#BA286F" d="M149.71,290.678c-1.226,0.239-2.259-0.153-2.536-1.587
			c-0.658,1.685,0.549,1.868,1.686,2.046c0.804,0.126,1.691-0.421,2.426,0.299C150.976,290.732,150.546,290.515,149.71,290.678z"/>
		<path fill-rule="evenodd" clip-rule="evenodd" fill="#BA286F" d="M264.752,134.848c-0.009,0.063-0.021,0.097-0.032,0.098
			c0.013,0.018,0.03,0.046,0.06,0.102c0.216,0.421,0.232,0.204,0.266,0.012C264.936,134.991,264.831,134.922,264.752,134.848z"/>
		<path fill-rule="evenodd" clip-rule="evenodd" fill="#BA286F" d="M265.067,134.962c-0.009,0.029-0.016,0.062-0.021,0.098
			c0.067,0.042,0.117,0.089,0.198,0.129l0,0c0,0,0,0,0,0C265.168,135.116,265.12,135.038,265.067,134.962z"/>
		<path fill-rule="evenodd" clip-rule="evenodd" fill="#BA286F" d="M264.752,134.848c0.002-0.023,0.007-0.037,0.008-0.075
			c0.006-0.202,0.023-0.403,0.034-0.604c-0.049-0.639,0.144-1.326-0.136-1.919C264.534,133.147,263.991,134.127,264.752,134.848z"/>
		<path fill-rule="evenodd" clip-rule="evenodd" fill="#BA286F" d="M44.154,321.254c-0.652-0.941,1.348-1.963,0.09-2.893
			c-0.043,0.022-0.087,0.045-0.13,0.068c-0.596,0.621-0.467,1.393-0.436,2.145c0.012,0.081,0.023,0.165,0.036,0.248
			C43.871,320.932,44.007,321.108,44.154,321.254z"/>
		<path fill-rule="evenodd" clip-rule="evenodd" fill="#BA286F" d="M135.602,197.385c0.329-0.098,0.669-0.179,1.012-0.246
			c-0.501-0.245-1.03-0.391-1.62-0.341c-0.049,0.026-0.106,0.038-0.165,0.049C134.684,197.272,134.559,197.693,135.602,197.385z"/>
		<path fill-rule="evenodd" clip-rule="evenodd" fill="#BA286F" d="M67.279,189.743c0.002-0.564,0.005-1.128,0.007-1.692
			c0.001-0.193,0.001-0.386,0-0.579c-0.193-0.008-0.386-0.014-0.579-0.017c-0.21,0.223-0.418,0.446-0.627,0.669
			c0.047,0.985-0.087,2,0.489,2.896c0.008,0,0.017-0.001,0.024-0.001c0.063-0.054,0.117-0.115,0.19-0.159
			C66.931,190.468,67.096,190.095,67.279,189.743z"/>
		<path fill-rule="evenodd" clip-rule="evenodd" fill="#BA286F" d="M27.921,243.257c-0.052-0.019-0.104-0.038-0.155-0.057
			c-0.894-0.019-1.618,0.338-2.277,0.843c0.612-0.001,1.219-0.125,1.846-0.223C27.856,243.739,27.935,243.51,27.921,243.257z"/>
		<path fill-rule="evenodd" clip-rule="evenodd" fill="#BA286F" d="M29.193,261.013c0.317,0.37,0.636,0.74,0.952,1.109
			c0.043-0.037,0.096-0.067,0.146-0.1C30.606,261.01,29.963,260.949,29.193,261.013z"/>
		<path fill-rule="evenodd" clip-rule="evenodd" fill="#BA286F" d="M168.714,250.999c-0.233-0.464-0.583-0.383-0.953-0.203
			c0,0-0.001,0-0.001,0c0,0,0,0,0,0C168.079,250.864,168.397,250.932,168.714,250.999z"/>
		<path fill-rule="evenodd" clip-rule="evenodd" fill="#BA286F" d="M67.722,188.348c-0.114,0.278-0.135,0.573-0.136,0.871
			c0.302-0.463,0.658-0.864,1.104-1.166c-0.337,0-0.674,0-1.011-0.001C67.698,188.149,67.721,188.245,67.722,188.348z"/>
		<rect x="70.222" y="188.054" fill-rule="evenodd" clip-rule="evenodd" fill="#BA286F" width="0.003" height="0.004"/>
		<path fill-rule="evenodd" clip-rule="evenodd" fill="#BA286F" d="M67.586,189.218c-0.108,0.167-0.212,0.342-0.308,0.525
			c-0.002,0.413-0.003,0.827-0.005,1.24C67.672,190.445,67.584,189.824,67.586,189.218z"/>
		<path fill-rule="evenodd" clip-rule="evenodd" fill="#BA286F" d="M49.926,304.67c-0.458,0.499-0.86,1.027-0.892,1.752
			C49.699,306.042,49.976,305.447,49.926,304.67z"/>
		<path fill-rule="evenodd" clip-rule="evenodd" fill="#BA286F" d="M148.914,291.453c-0.972-0.204-1.942-0.407-2.913-0.612
			C146.86,291.573,147.771,292.063,148.914,291.453z"/>
		<path fill-rule="evenodd" clip-rule="evenodd" fill="#BA286F" d="M152.473,188.635c-0.794-1.028-1.43-2.111-1.206-3.491
			C150.641,186.663,150.99,187.846,152.473,188.635z"/>
		<path fill-rule="evenodd" clip-rule="evenodd" fill="#BA286F" d="M99.471,314.287c0.461-0.502,0.922-1.004,1.383-1.506
			C99.92,312.85,99.506,313.393,99.471,314.287z"/>
		<path fill-rule="evenodd" clip-rule="evenodd" fill="#BA286F" d="M145.432,284.981c0.609,0.798,1.123,1.676,1.959,2.278
			C147.159,286.138,146.341,285.52,145.432,284.981z"/>
		<path fill-rule="evenodd" clip-rule="evenodd" fill="#BA286F" d="M149.551,288.496c-0.475-0.575-1.014-1.05-1.789-1.164
			c0.138,0.355,0.357,0.632,0.607,0.88C148.763,288.186,149.157,288.254,149.551,288.496z"/>
		<path fill-rule="evenodd" clip-rule="evenodd" fill="#BA286F" d="M148.832,288.616c-0.164-0.125-0.317-0.26-0.462-0.404
			c-0.398,0.026-0.796,0.15-1.193,0.291C147.729,288.897,148.28,288.749,148.832,288.616z"/>
		<path fill-rule="evenodd" clip-rule="evenodd" fill="#BA286F" d="M187.686,514.878c-0.313-0.157-0.395,0.11-0.511,0.357
			l0.125,0.094l0.228-0.008c0.04-0.021,0.089-0.033,0.142-0.043C187.766,515.109,187.853,514.962,187.686,514.878z"/>
		<polygon fill-rule="evenodd" clip-rule="evenodd" fill="#BA286F" points="70.225,187.466 70.223,187.466 70.224,187.466 		"/>
		<path fill-rule="evenodd" clip-rule="evenodd" fill="#BA286F" d="M66.932,187.224c0.19,0.041,0.369,0.113,0.524,0.248
			c0.393,0,0.786-0.001,1.179-0.002c0.077-0.005,0.154-0.006,0.231-0.001c0.452,0,0.904-0.001,1.356-0.002
			c0.099-0.057,0.197-0.103,0.297-0.151c-0.49-0.942,0.572-0.915,1.17-0.836c0.331,0.043,0.661,0.054,0.992,0.07
			c-0.37-0.028-0.717-0.128-0.681-0.612c0.04-0.549,0.735-0.5,1.138-0.719c-1.01-0.048-2.039-0.29-2.984,0.298
			C69.85,187.453,67.898,186.461,66.932,187.224z"/>
		<path fill-rule="evenodd" clip-rule="evenodd" fill="#BA286F" d="M66.633,187.179c0.022-0.001,0.042,0.009,0.064,0.01
			c0.032-0.699,0.661-0.754,1.234-0.857c0.789-0.144,1.723,0.114,2.223-0.815c-0.967,0.067-1.934,0.174-2.901,0.192
			c-2.015,0.039-2.015,1.013-1.174,2.416C65.788,187.531,66.167,187.33,66.633,187.179z"/>
		<path fill-rule="evenodd" clip-rule="evenodd" fill="#BA286F" d="M66.932,187.224c-0.076-0.017-0.152-0.034-0.234-0.035
			c-0.004,0.082-0.005,0.167,0.009,0.267C66.773,187.362,66.85,187.289,66.932,187.224z"/>
		<path fill-rule="evenodd" clip-rule="evenodd" fill="#BA286F" d="M95.106,186.053c0.065-0.001,0.13-0.004,0.195-0.004
			c-1.268-0.518-2.617-0.398-3.953-0.381C92.528,186.365,93.867,185.825,95.106,186.053z"/>
		<path fill-rule="evenodd" clip-rule="evenodd" fill="#BA286F" d="M93.475,186.342c0.74-0.025,1.498-0.181,2.227-0.113
			c-0.195-0.086-0.395-0.139-0.596-0.176C94.545,186.065,93.995,186.127,93.475,186.342z"/>
		<path fill-rule="evenodd" clip-rule="evenodd" fill="#BA286F" d="M160.171,248.248c0.479-0.059,0.9-0.147,1.175-0.052
			C161.067,248.14,160.649,248.21,160.171,248.248c-0.546,0.068-1.17,0.089-1.761-0.243c-0.017-0.008-0.034-0.014-0.052-0.021
			c1.276,1.041,2.62,0.395,3.95-0.008c-1.32,0-2.639,0-3.961,0c0.021,0.012,0.042,0.018,0.063,0.029
			C159.007,248.287,159.627,248.292,160.171,248.248z"/>
		<polygon fill-rule="evenodd" clip-rule="evenodd" fill="#BA286F" points="158.344,247.974 158.342,247.973 158.338,247.976 		"/>
		<path fill-rule="evenodd" clip-rule="evenodd" fill="#BA286F" d="M70.22,187.468c-0.05,0.022-0.1,0.03-0.149,0.05
			c0.037-0.006,0.077-0.01,0.115-0.015L70.22,187.468z"/>
		<polygon fill-rule="evenodd" clip-rule="evenodd" fill="#BA286F" points="70.222,187.467 70.221,187.467 70.221,187.467 		"/>
		<polygon fill-rule="evenodd" clip-rule="evenodd" fill="#BA286F" points="70.223,187.466 70.223,187.466 70.222,187.467 		"/>
		<rect x="70.224" y="187.466" fill-rule="evenodd" clip-rule="evenodd" fill="#BA286F" width="0.001" height="0.001"/>
		<path fill-rule="evenodd" clip-rule="evenodd" fill="#BA286F" d="M67.5,187.543c0.05,0.087,0.089,0.178,0.121,0.271
			c0.089-0.056,0.179-0.099,0.268-0.142C67.758,187.638,67.629,187.592,67.5,187.543z"/>
		<path fill-rule="evenodd" clip-rule="evenodd" fill="#BA286F" d="M70.051,187.642v0.243l0.161,0.162
			c0.004,0.003,0.008,0.005,0.011,0.008c0.001,0,0.001,0,0.001,0c0-0.186,0-0.371,0.001-0.557c-0.013,0.002-0.026,0.003-0.039,0.005
			L70.051,187.642z"/>
		<path fill-rule="evenodd" clip-rule="evenodd" fill="#BA286F" d="M69.616,187.672c-0.113,0.03-0.228,0.049-0.342,0.067
			c-0.209,0.087-0.403,0.192-0.583,0.313c0.51,0,1.02,0.001,1.529,0.001l-0.008-0.008C70.014,187.887,69.815,187.767,69.616,187.672
			z"/>
		<path fill-rule="evenodd" clip-rule="evenodd" fill="#BA286F" d="M67.621,187.813c-0.111,0.07-0.224,0.147-0.335,0.238
			c0.132,0,0.263,0,0.395,0C67.665,187.971,67.648,187.891,67.621,187.813z"/>
		<path fill-rule="evenodd" clip-rule="evenodd" fill="#BA286F" d="M70.071,187.518c-0.18,0.031-0.349,0.074-0.51,0.126
			c0.019,0.008,0.037,0.019,0.055,0.028C69.768,187.632,69.919,187.58,70.071,187.518z"/>
		<polygon fill-rule="evenodd" clip-rule="evenodd" fill="#BA286F" points="70.22,187.467 70.22,187.468 70.221,187.467 		"/>
		<polygon fill-rule="evenodd" clip-rule="evenodd" fill="#BA286F" points="70.221,187.467 70.221,187.467 70.221,187.467 		"/>
		<path fill-rule="evenodd" clip-rule="evenodd" fill="#BA286F" d="M67.471,187.48c-0.004-0.004-0.01-0.005-0.015-0.009
			c-0.057,0-0.114,0-0.171,0c0.071,0.031,0.143,0.044,0.214,0.071C67.488,187.522,67.484,187.5,67.471,187.48z"/>
		<path fill-rule="evenodd" clip-rule="evenodd" fill="#BA286F" d="M69.274,187.739c0.091-0.038,0.19-0.064,0.287-0.095
			c-0.231-0.104-0.463-0.16-0.694-0.175c-0.077,0-0.154,0-0.231,0.001c-0.249,0.016-0.498,0.083-0.747,0.202
			C68.35,187.792,68.813,187.813,69.274,187.739z"/>
	</g>
	<g>
		<g>
			<path fill="#BA286F" d="M171.676,249.692c3.378,3.306,7.358,5.949,10.5,9.5c2.141,2.42,5.663-1.13,3.535-3.535
				c-3.141-3.551-7.121-6.194-10.5-9.5C172.907,243.901,169.369,247.435,171.676,249.692L171.676,249.692z"/>
		</g>
	</g>
	<g>
		<g>
			<path fill="#BA286F" d="M185.602,258.663c-6.517-11.84-18.026-16.583-31.158-16.238c-3.23,0.084-3.215,4.867,0,5
				c7.48,0.311,14.041,4.21,20.738,7.159c2.922,1.286,5.469-3.021,2.523-4.317c-7.558-3.327-14.825-7.491-23.262-7.841
				c0,1.667,0,3.333,0,5c11.414-0.299,21.145,3.412,26.842,13.762C182.84,264.011,187.158,261.489,185.602,258.663L185.602,258.663z
				"/>
		</g>
	</g>
	<g>
		<g>
			<path fill="#BA286F" d="M159.944,245.425c-1.402,0.001-2.695,0.276-3.768,1.232c-1.018,0.907-0.922,2.613,0,3.535
				c1.004,1.004,2.52,0.906,3.535,0c-0.104,0.078-0.207,0.156-0.311,0.234c0.225-0.124,0.143-0.096-0.247,0.084
				c0.19-0.074,0.838-0.163-0.012-0.051c0.265-0.035,0.535-0.035,0.802-0.035c1.363-0.001,2.5-1.136,2.5-2.5
				C162.444,246.563,161.307,245.423,159.944,245.425L159.944,245.425z"/>
		</g>
	</g>
	<g>
		<g>
			<path fill="#BA286F" d="M146.109,295.335c0.907-0.287,1.619-0.685,2.361-1.268c0.722-0.567-0.279,0.153,0.411-0.305
				c-0.336,0.223-0.799-0.005-0.199,0.321c2.522,1.373,4.971-1.837,3.029-3.926c-1.284-1.383-2.184-3.118-4.006-3.891
				c-2.887-1.225-5.352,2.583-2.523,4.317c2.47,1.514,4.735,3.303,6.994,5.109c1.063,0.851,2.492,1.043,3.535,0
				c0.884-0.883,1.066-2.683,0-3.535c-2.588-2.07-5.176-4.156-8.006-5.891c-0.841,1.439-1.683,2.878-2.523,4.317
				c1.34,0.568,2.033,2.076,2.994,3.109c1.01-1.309,2.02-2.618,3.029-3.926c-1.263-0.688-2.588-1.132-4.015-0.692
				c-0.944,0.291-1.545,1.166-2.412,1.44C141.716,291.483,143.026,296.311,146.109,295.335L146.109,295.335z"/>
		</g>
	</g>
	<g>
		<g>
			<path fill="#BA286F" d="M129.779,201.335c4.952,0.669,8.967,3.695,13.403,5.748c2.905,1.345,5.447-2.964,2.523-4.317
				c-4.81-2.226-9.226-5.527-14.597-6.252C127.958,196.088,126.596,200.906,129.779,201.335L129.779,201.335z"/>
		</g>
	</g>
	<g>
		<g>
			<path fill="#BA286F" d="M147.211,201.657c-5.607-5.222-12.878-6.515-20.103-8.143c-3.141-0.708-4.475,4.112-1.33,4.821
				c6.258,1.411,13.019,2.314,17.897,6.857C146.032,207.387,149.576,203.859,147.211,201.657L147.211,201.657z"/>
		</g>
	</g>
</g>
<g id="Layer_2">
	<path fill-rule="evenodd" clip-rule="evenodd" fill="#BA286F" d="M281.679,314.925c0,0,13.104,24.163,10.935,27.706
		c-2.17,3.544-8.658,3.044-8.658,3.044l-4.548-11l-1.835-14.25L281.679,314.925z"/>
	<path fill-rule="evenodd" clip-rule="evenodd" fill="#BA286F" d="M278.467,276.215c0,0-8.785,6.217-7.785,8.489
		s-3.988,2.502-3.988,2.502l-7.25-10.991l13.869-5.04L278.467,276.215z"/>
	<path fill-rule="evenodd" clip-rule="evenodd" fill="#BA286F" d="M275.598,290.218c0,0,8.104,4.817,11.475,9.637
		s-8.605,3.82-8.605,3.82l-7.523-8.242L275.598,290.218z"/>
	<path fill-rule="evenodd" clip-rule="evenodd" fill="#BA286F" d="M262.685,129.254c0,0,5.476,1.413,9.555,18.167l-11.171,3.004
		L262.685,129.254z"/>
	<path fill-rule="evenodd" clip-rule="evenodd" fill="#BA286F" d="M272.131,155.578c0,0-0.736,9.171-2.399,13.009
		s-6.788,1.213-6.788,1.213l2.947-6.673L272.131,155.578z"/>
	<polygon fill-rule="evenodd" clip-rule="evenodd" fill="#BA286F" points="270.639,188.175 276.194,186.8 274.819,195.05 
		270.639,194.175 	"/>
	<path fill-rule="evenodd" clip-rule="evenodd" fill="#BA286F" d="M212.208,141.371c0,0,4.4,8.572,7.984,9.979
		s-3.992,4.228-3.992,4.228L212.208,141.371z"/>
	<polygon fill-rule="evenodd" clip-rule="evenodd" fill="#BA286F" points="187.881,141.371 183.183,148.475 187.881,148.475 	"/>
	<path fill-rule="evenodd" clip-rule="evenodd" fill="#BA286F" d="M172.815,164.735c0,0-7.693,13.464-7.949,13.99
		s7.949,1.2,7.949,1.2V164.735z"/>
	<path fill-rule="evenodd" clip-rule="evenodd" fill="#BA286F" d="M135.679,116.261c0,0,0.018,15.702,0.213,19.029
		s3.717,0.278,3.717,0.278l1.167-13.142L135.679,116.261z"/>
	<polyline fill-rule="evenodd" clip-rule="evenodd" fill="#BA286F" points="142.276,166.754 145.444,166.754 145.444,175.254 
		141.609,166.754 	"/>
	<polygon fill-rule="evenodd" clip-rule="evenodd" fill="#BA286F" points="147.942,183.917 152.473,183.917 155.109,192.417 
		149.776,193.25 	"/>
	<path fill-rule="evenodd" clip-rule="evenodd" fill="#BA286F" d="M102.42,186.342c0,0-26.87-3.259-36.341-0.425
		c0,0-1.127,2.805,0.734,13.008s12.628,4.5,12.628,4.5L102.42,186.342z"/>
	<polygon fill-rule="evenodd" clip-rule="evenodd" fill="#BA286F" points="75.776,211.413 78.609,220.746 73.139,221.913 
		70.138,211.413 	"/>
	
		<circle fill-rule="evenodd" clip-rule="evenodd" fill="none" stroke="#BA286F" stroke-width="5" stroke-miterlimit="10" cx="161.334" cy="271.929" r="22.125"/>
	<path fill-rule="evenodd" clip-rule="evenodd" fill="none" stroke="#BA286F" stroke-width="5" stroke-miterlimit="10" d="
		M129.647,323.992c0,8.469-8.894,15.334-17.362,15.334c-8.468,0-15.333-6.865-15.333-15.334c0-8.468,6.865-15.333,15.333-15.333
		C120.753,308.659,129.647,315.524,129.647,323.992z"/>
	<path fill-rule="evenodd" clip-rule="evenodd" fill="#BA286F" d="M39.821,237.117c0,0-15.8,5.308-19.755,8.808
		c0,0,2.642,13.198,16.427,22.766s13.439-23.807,13.439-23.807L39.821,237.117z"/>
	<path fill-rule="evenodd" clip-rule="evenodd" fill="#BA286F" d="M51.457,275.885c0,0,7.58,0.729,10.617,6.218
		s2.371-6.218,2.371-6.218l-12-3.126l-1.6,2.945"/>
	<path fill-rule="evenodd" clip-rule="evenodd" fill="#BA286F" d="M52.748,298.182c0,0-19.956,30.133-11.213,60.688
		s31.076-8.445,31.076-8.445L52.748,298.182z"/>
	<path fill-rule="evenodd" clip-rule="evenodd" fill="#BA286F" d="M54.737,394.366c0,0,11.976,20.547,14.063,23.71
		s8.978-8.652,8.978-8.652l-7-10.5L54.737,394.366z"/>
	<path fill-rule="evenodd" clip-rule="evenodd" fill="none" stroke="#BA286F" stroke-miterlimit="10" d="M135.353,421.75
		c0,3.711-6.134,8.333-10.737,8.333c-4.602,0-8.332-3.731-8.332-8.332c0-4.603,3.73-8.334,8.332-8.334
		C129.219,413.417,135.353,417.789,135.353,421.75z"/>
	<path fill-rule="evenodd" clip-rule="evenodd" fill="#BA286F" d="M120.105,414.751c0,0,5.239-3.964,10.61,0.668
		s8.729-6.326,8.729-6.326l-17.334-4.667l-2.006,9.667"/>
	<path fill-rule="evenodd" clip-rule="evenodd" fill="#BA286F" d="M116.895,418.614c0,0-2.001,2.68,1.024,8.079
		s-2.975,5.732-2.975,5.732l-12-6.905L116.895,418.614z"/>
	<path fill-rule="evenodd" clip-rule="evenodd" fill="#BA286F" d="M119.437,428.271c0,0,4.732,3.66,9.453,0.741
		s1.721,4.414,1.721,4.414l-9.166,6.667L119.437,428.271z"/>
	<path fill-rule="evenodd" clip-rule="evenodd" fill="#BA286F" d="M134.095,418.472c0,0,2.814,2.793,0,6.457
		s6.183,3.342,6.183,3.342l1.833-7.511L134.095,418.472z"/>
	<path fill-rule="evenodd" clip-rule="evenodd" fill="#BA286F" d="M180.232,513.364c0,0,29.528,11.869,40.37,14.215
		s25.592,6.346,35.342,6.596s35.812-1.269,46.308-6.596s17.694-9.756,17.694-9.756l-140.726-4.951"/>
</g>
</svg>
